<svg width="1120" height="360" viewBox="0 0 1120 360" fill="none" xmlns="http://www.w3.org/2000/svg" role="img" aria-labelledby="title desc">
  <title id="title">Sparse Kernel</title>
  <desc id="desc">Sparse Kernel logo with a layered kernel mark and connected sparse nodes.</desc>
  <rect width="1120" height="360" rx="36" fill="#0B1020"/>
  <g transform="translate(82 62)">
    <rect x="58" y="58" width="164" height="164" rx="36" fill="#101A33" stroke="#38BDF8" stroke-width="8"/>
    <rect x="92" y="92" width="96" height="96" rx="24" fill="#14213D" stroke="#5EEAD4" stroke-width="8"/>
    <rect x="124" y="124" width="32" height="32" rx="8" fill="#F8FAFC"/>
    <path d="M140 10V58" stroke="#38BDF8" stroke-width="8" stroke-linecap="round"/>
    <path d="M140 222V270" stroke="#38BDF8" stroke-width="8" stroke-linecap="round"/>
    <path d="M10 140H58" stroke="#38BDF8" stroke-width="8" stroke-linecap="round"/>
    <path d="M222 140H270" stroke="#38BDF8" stroke-width="8" stroke-linecap="round"/>
    <path d="M47 47L82 82" stroke="#5EEAD4" stroke-width="7" stroke-linecap="round"/>
    <path d="M198 198L233 233" stroke="#5EEAD4" stroke-width="7" stroke-linecap="round"/>
    <path d="M233 47L198 82" stroke="#5EEAD4" stroke-width="7" stroke-linecap="round"/>
    <path d="M82 198L47 233" stroke="#5EEAD4" stroke-width="7" stroke-linecap="round"/>
    <circle cx="140" cy="10" r="10" fill="#F8FAFC"/>
    <circle cx="140" cy="270" r="10" fill="#F8FAFC"/>
    <circle cx="10" cy="140" r="10" fill="#F8FAFC"/>
    <circle cx="270" cy="140" r="10" fill="#F8FAFC"/>
    <circle cx="47" cy="47" r="9" fill="#A7F3D0"/>
    <circle cx="233" cy="47" r="9" fill="#A7F3D0"/>
    <circle cx="47" cy="233" r="9" fill="#A7F3D0"/>
    <circle cx="233" cy="233" r="9" fill="#A7F3D0"/>
  </g>
  <g transform="translate(420 101)">
    <text x="0" y="73" fill="#F8FAFC" font-family="Inter, ui-sans-serif, system-ui, -apple-system, BlinkMacSystemFont, 'Segoe UI', sans-serif" font-size="78" font-weight="760">Sparse Kernel</text>
    <text x="2" y="132" fill="#A7F3D0" font-family="Inter, ui-sans-serif, system-ui, -apple-system, BlinkMacSystemFont, 'Segoe UI', sans-serif" font-size="32" font-weight="520">durable agents, leased execution</text>
  </g>
</svg>
